<svg version="1" xmlns="http://www.w3.org/2000/svg" width="933.333" height="933.333" viewBox="0 0 700.000000 700.000000"><path d="M328.5.6C285.7 4.1 249.4 12.5 214.8 27 97.7 76.2 17.2 183.2 2.5 309.5c-5 42.8-1.2 94.5 9.8 132.4l1.2 4.3 33-74 33-74.1 41.5-39.8c22.8-21.9 58.8-57.2 80-78.4l38.5-38.7 25.1-5.6c18.7-4.2 28.1-6.9 37.5-10.6l12.4-5 35-2c27.5-1.7 43-3.2 72.2-7.1 20.4-2.7 38.2-4.9 39.5-4.9 1.9.1 4.1 2.9 12.3 15.6 5.5 8.5 9.9 16.2 9.7 17.2-.2.9-4 14.7-8.4 30.7-4.4 15.9-8 30.1-8 31.5.1 1.4 3.5 21.4 7.7 44.5l7.7 42-1.2 8.2c-1.2 7.3-1.1 9.6.7 20.3l2 12.1-9.8 8.4-9.8 8.5h-17.9l-1.7 4.4-1.7 4.3 9.7 37.4c5.3 20.6 20.4 79.7 33.5 131.4 13.3 52.3 26.6 102.4 30 113 3.4 10.4 6.2 19.1 6.4 19.2.4.4 23.1-14.1 32.1-20.5 47-33.8 86.5-81 111-132.4 17-35.9 27.3-71.5 32.1-111.8 2.4-20 2.4-60 0-80-7.3-60.6-28.5-115.9-62.8-163.7-57.9-80.7-145-132-244.3-143.9C378 .9 338.8-.2 328.5.6z"/><path d="M413.5 123.1c-11 1.6-29.6 3.5-41.3 4.3-11.7.8-21.5 1.6-21.7 1.8-.3.2 4.8 1.9 11.3 3.8l11.7 3.4 14.3 11.8c7.9 6.5 14.6 11.8 15.1 11.8.4 0 4.8-4.6 9.6-10.3 4.9-5.6 13.3-14.6 18.8-20l10-9.7-3.9.1c-2.1.1-12.9 1.4-23.9 3zM451 126.8c-4.2 3.7-9.7 8.6-12.4 11l-4.9 4.2 12.4 21.5c6.7 11.8 12.5 21.3 12.7 21 .2-.2 3.2-10.5 6.7-22.9l6.2-22.6-6.4-9.5c-3.5-5.2-6.4-9.5-6.6-9.5-.1.1-3.6 3.1-7.7 6.8zM310.7 133.3c-3.1 1.2-5.7 2.3-5.7 2.6 0 .3 7.1 3.9 15.7 7.9l15.6 7.4 22.1 3.9c12.1 2.2 22.6 3.8 23.3 3.7.6-.2-2-3-6-6.3l-7.1-5.9-23.1-6.8c-12.6-3.8-24.4-7.2-26-7.7-2.2-.6-4.6-.3-8.8 1.2zM263 147.3c-7.4 1.7-13.7 3.2-13.9 3.3-.4.3 5.8 11.2 6.7 11.8.6.3 17.5-13.3 21.7-17.5 1.2-1.2 1.4-1.2-14.5 2.4zM279.9 157.1c-8.5 7.2-16.5 14-17.8 15.3l-2.3 2.4 3.2 22.8c1.7 12.6 3.5 23.9 3.8 25.2.6 2 4-1.5 27.7-28.9 14.9-17.1 27.8-32.1 28.8-33.4l1.8-2.3-9.8-4.7c-5.4-2.6-12.1-5.8-14.9-7l-5-2.3-15.5 12.9zM427.7 155.7c-.2.4-3.7 10.7-7.7 22.7-5.9 17.8-7.1 22.3-6.1 23.7 2.1 3.4 52.3 64 52.7 63.6.2-.2-2.1-14.3-5.2-31.3l-5.6-30.9L450 193c-12-21.6-21.8-38.1-22.3-37.3zM215 180.7c-12.9 13.5-23.5 25.2-23.5 25.9 0 1.3 16.5 22.2 17.6 22.3.4.1 1.3-.9 2.2-2.2.8-1.2 9.3-14.2 19-28.8l17.5-26.7-4.2-7.1c-2.3-3.9-4.4-7.3-4.7-7.5-.3-.3-11 10.6-23.9 24.1zM306.5 196.5c-30.6 35.5-33 38.4-32.4 38.9.2.2 14.4 4.7 31.5 9.8l31.1 9.5 29.4-25.9c16.2-14.3 29.5-26.3 29.6-26.6.3-.8-58.1-37.6-60-37.9-.7-.1-13.8 14.4-29.2 32.2zM363.4 167.7c.3.4 9.1 6 19.4 12.4l18.7 11.8.8-3c.4-1.6 1.1-2.8 1.6-2.5.6.4 2.8-5.5 5.8-15.4.3-.8-.4-.5-1.5.7-1.1 1.3-2.8 2.3-3.7 2.3-1 0-10.4-1.6-21.1-3.5-21.1-3.8-21-3.8-20-2.8zM235.7 209.9c-8.1 12.1-14.7 22.3-14.7 22.6 0 .3 8.1.5 18 .5s18-.3 17.9-.8c0-.4-1.5-10.5-3.2-22.6l-3.2-21.8-14.8 22.1zM154.5 241.3c-14.9 14.4-35.1 33.9-44.9 43.3l-17.8 17.2 8.7 10.8c4.8 6 9.1 10.9 9.6 10.9 1.2 0 92-84.7 91.7-85.6-.7-1.9-18.4-22.9-19.3-22.8-.5 0-13.2 11.8-28 26.2zM371.7 238.7c-12.9 11.5-23.6 21.2-23.6 21.8-.1.5 9 8.1 20.1 16.7l20.3 15.7.5-24.7c.6-23.6.7-25.3 3.8-37.1 1.7-6.9 3-12.6 2.8-12.8-.1-.2-10.9 9-23.9 20.4zM403.2 235.2c-3.3 14-3.3 14.7-3 34.6l.3 20.2 11.8-13.2c6.5-7.2 11.6-13.6 11.4-14.2-.3-.6-4-10.2-8.3-21.4-4.3-11.1-8.1-20.2-8.4-20.2-.3 0-2 6.4-3.8 14.2zM426.1 238.2c1.2 2.9 3.5 9 5.2 13.4l3.1 8.1 10.4 5.2 10.4 5.2-7.3-8.8c-4-4.8-10.8-13.2-15.2-18.6-4.4-5.3-8.1-9.7-8.3-9.7-.2 0 .6 2.4 1.7 5.2zM218.2 245.4c1.1 4.8 43.4 124.5 43.9 124.3.4-.1 8.8-10 18.7-22.1l18-21.8-2.8-6.2c-1.6-3.3-10.3-21.6-19.3-40.6l-16.6-34.5-21.1-.3c-17.9-.2-21.1 0-20.8 1.2zM280.4 261.2c3.5 7.3 11.3 23.5 17.4 36l11 22.7 5.3-1.4c3-.7 18.9-4.6 35.4-8.6 16.5-3.9 30.4-7.5 30.8-7.9.5-.4-7.8-7.4-18.5-15.6-10.6-8.1-20.9-16-22.8-17.6-2.6-2-11.3-5.1-33.2-11.8-16.3-4.9-30.1-9-30.7-9-.5 0 1.9 6 5.3 13.2zM195.5 260.3c-6.6 6.2-27.8 25.8-47 43.6l-35 32.4-14.1 25.6c-7.8 14.1-14.1 25.7-14 25.8.3.3 166-10.8 166.4-11.2.4-.4-42.2-123.3-43.7-126.2-.4-.8-5.1 3-12.6 10zM417 288.1c-6.9 7.7-12.6 14.4-12.7 14.7-.2.4 9.4 5.4 21.3 11.1l21.5 10.4 6.4-6.3c3.6-3.6 6.5-6.8 6.5-7.2 0-.7-29.7-36.8-30.3-36.8-.1.1-5.8 6.4-12.7 14.1zM451.6 282.2c.4.7 3.9 5 7.8 9.6l6.9 8.3 1.8-4.7c1-2.6 1.7-4.9 1.6-5-.6-.6-17.6-9.4-18.2-9.4-.3 0-.3.6.1 1.2zM390.5 311.5c-.5.2-12.7 3.2-27 6.6-20.8 5-25.4 6.4-23 7 1.7.4 13.2 2.2 25.7 4l22.8 3.3 17.2-2.3c9.5-1.2 18-2.5 18.8-2.8 1.8-.6-28.6-16.2-31.5-16.2-1.1 0-2.4.2-3 .4zM56.6 377.3c-15.9 35.8-31.1 69.6-33.7 75l-4.8 9.8 4.6 12c2.5 6.5 4.9 11.9 5.3 11.9.6 0 38.5-84.6 38.5-86 0-1.4 11-23.8 11.5-23.5.7.4 24-41.6 24-43.4 0-.9-15.7-21.1-16.4-21.1 0 0-13.1 29.4-29 65.3zM463.1 324.4c-4.2 4.3-4.7 6.6-1.3 6.6 1.8-.1 8.2-5.4 8.2-6.7 0-.5-.6-1.6-1.4-2.5-1.1-1.6-1.6-1.3-5.5 2.6zM292.8 350.7c-8 9.8-14.5 17.9-14.4 18 .3.3 48.3-17.5 50.4-18.6 1-.6-1.5-3-9.2-8.9-5.8-4.5-10.9-8.2-11.3-8.2-.5 0-7.4 8-15.5 17.7zM331.3 335.7c.3.5 3.9 3.5 8 6.6l7.5 5.7 8.2-3c4.5-1.7 8.9-3.4 9.7-3.9.9-.5-4.7-1.6-14.4-3-8.7-1.3-16.6-2.5-17.7-2.8-1-.3-1.6-.1-1.3.4zM396.5 342.5c-4.4.7-9.6 2-11.5 2.9l-3.5 1.5 3.8.1c3.1 0 19.7-3.7 24.2-5.5 2.1-.8-5.4-.2-13 1zM416.2 351.6c-8.9 2.3-16.7 4.4-17.3 4.6-.7.2-.2 1.5 1.2 3.2l2.4 2.7L417 356c13.7-5.7 16.9-7.5 15.9-8.3-.2-.3-7.7 1.5-16.7 3.9zM302.7 371.8l-36.9 13.7.6 33.5c.4 18.4.9 36.7 1.2 40.7.6 7.2.6 7.2 3.2 6.7 1.5-.3 19.1-2.7 39.1-5.4 20.1-2.7 36.8-5.3 37.2-5.7.4-.5 2.1-6.7 3.8-13.9 2.7-11.5 3.1-15.5 3.6-33.5l.7-20.4-6.4-14.5c-3.6-8.1-7.1-14.6-7.9-14.7-.8-.1-18 6-38.2 13.5zM355 359.3c0 1.2 6.8 15.8 7.4 15.8.6 0 7.9-8.5 12.5-14.4 1.3-1.6.7-1.7-9.3-1.7-5.8 0-10.6.1-10.6.3zM377.3 375.7L366 389.2v20.1l2.8-3.9c9.8-13.6 24.2-35.5 24.2-36.6-.1-.7-1.1-2.5-2.3-4l-2.2-2.7-11.2 13.6zM416.3 368.2l-12.3 5.2-19.8 29-19.9 29.1-2.5 10.7c-2.1 8.9-2.2 10.8-1 10.8 1.8 0 51.5-11 52-11.5.7-.6 16.3-76.8 16-77.6-.2-.4-5.8 1.5-12.5 4.3zM431.6 408c-3.2 16-5.6 29.3-5.3 29.7.5.5 8.3-1.2 21.9-4.8l3.6-.9-6.4-24.8c-3.5-13.6-6.7-25.5-7.1-26.5-.5-1.1-2.9 8.5-6.7 27.3zM171 393.1c-38.8 2.6-72.7 4.8-75.5 4.8-4.9.1-4.9.1-3 2 1.1 1.1 22.6 18.2 47.9 38l45.9 36 30.8-42.5c17-23.4 30.9-42.7 30.9-42.9 0-.7.6-.7-77 4.6zM227.2 436.6c-15 20.8-27 38-26.5 38.1 1.1.4 55.2-6.3 55.6-6.8.4-.4-1-59.5-1.5-65.7-.3-3.1-2.4-.5-27.6 34.4zM83 408.9c0 3.1 14.1 111.5 14.6 112 .2.2 9.1-4 19.7-9.4 37.7-19.2 58.2-29.8 58.9-30.4.3-.3-17.9-15.1-40.5-32.9-22.7-17.7-43.8-34.3-46.9-36.8-5-3.9-5.8-4.3-5.8-2.5zM70.8 418c-.9 1.9-9.5 21.4-19.2 43.3L34 501l3.6 7.3c7.5 14.9 24.4 42.1 31.6 51l2.3 2.8 7.8-16.4 7.7-16.4-7.3-57.4c-7.1-55.5-7.4-57.3-8.9-53.9zM438 446.9c-13.9 3.6-14.5 3.8-14.2 6.2 1.1 10 21.3 163.4 21.6 163.6.5.5 47.8-5.7 49.7-6.5 1.4-.6-1.2-11.9-19.5-84-11.5-45.7-21.5-83.2-22.1-83.1-.5 0-7.5 1.8-15.5 3.8zM368 462.9c-11.8 2.6-26 5.3-31.5 5.9-9.9 1-61.2 8-62.8 8.5-.7.2 6.6 9.8 31.9 41.9l2.1 2.7 32.9-25.6c18.1-14 36.5-28 40.9-31.1 9.2-6.3 10.3-7.2 9-7.1-.6 0-10.7 2.2-22.5 4.8zM394.7 492.3l-18.6 29.3-9.6 27.3c-5.2 15.1-9.4 27.6-9.2 27.7 1.3 1.3 75 36.4 75.5 36 .5-.5-18.5-148.7-19.2-149.3-.1-.2-8.6 12.9-18.9 29zM385.4 476.2c-8 5.8-66.8 51.1-69.7 53.8-.7.6 30.3 37.1 32.1 37.7.4.2 4.5-11 9.2-24.9l8.5-25.1 15.3-24c8.4-13.2 15.1-24.1 14.9-24.3-.2-.2-4.8 2.9-10.3 6.8zM221.2 483.5c-15.1 1.9-27.5 3.5-27.6 3.7-.5.5 12.2 164.9 12.7 165.4.2.3 11.9-6.6 25.8-15.3l25.4-15.9.3-21.4c.2-11.8 0-43.7-.3-70.8l-.7-49.2-4.2.1c-2.2.1-16.4 1.6-31.4 3.4zM268.6 535.1c.4 25 .9 45.7 1.3 46 .3.3 15.7-.9 34.1-2.7 18.4-1.8 33.9-3.3 34.3-3.4.4 0-6.6-8.4-15.5-18.6-9-10.2-24.5-29-34.6-41.7-10.1-12.8-18.7-23.6-19.2-24.1-.6-.6-.7 16.6-.4 44.5zM140.5 512c-29.4 15-41.1 21.4-41.3 22.7-.2 1 1.1 15.4 2.8 31.9 1.6 16.5 3 30.9 3 31.9 0 3 21.8 22.2 40.5 35.6 16.8 12.1 41.7 26.9 45.1 26.9 5-.1 5.1 3.8-1.7-85.9-3.5-46.3-6.6-84.1-6.9-84.1-.3 0-18.9 9.5-41.5 21zM83.8 562.1l-4.7 10L85 579c8 9.2 8.4 9.4 7.7 3.4-.4-2.7-1.2-10.6-1.8-17.7-.7-7-1.5-12.7-1.8-12.7-.3 0-2.7 4.6-5.3 10.1zM306.5 589.1c-15.9 1.5-30.9 3.1-33.2 3.4l-4.3.6v15.2l.1 15.2 8.3 15.3c4.6 8.5 8.6 15.4 9 15.3.7 0 51.6-66.8 51.6-67.7 0-.2-.6-.3-1.2-.3-.7.1-14.3 1.4-30.3 3zM357.5 591.3c.2 1.2 1.6 10.3 3.1 20.2 1.4 9.9 2.7 18.1 2.8 18.1.1.2 54.4-8.4 56.5-8.9 1.4-.3-20.3-11.4-51.7-26.3-10.3-4.9-11.2-5.2-10.7-3.1zM319.1 630L292 666.1l8.4 15.7 8.5 15.7 5.8.7c18.9 2.1 67.7 1.8 69.9-.5.3-.3-6.7-13.9-15.4-30.4l-16-29.8L350 616c-1.7-11.8-3.3-21.6-3.4-21.8-.2-.1-12.5 16-27.5 35.8zM472 624.6c-13.5 1.8-24.5 3.3-24.6 3.4-.2 0 12.9 53.5 13.2 53.9 1.1 1.2 51.4-20.2 51.4-21.9 0-.5-2.7-9.2-6-19.4-3.3-10.3-6-18.8-6-19.1 0-.7-1.2-.6-28 3.1zM400.3 635c-16.7 2.7-30.9 5-31.7 5.2-1.1.2 2.7 8 13.3 27.8 17.2 31.9 14.1 29.5 32.4 26 14.1-2.7 33.7-7.6 34.7-8.7.4-.4-2.3-13-5.9-27.8l-6.6-27-3-.2c-1.7-.1-16.6 2-33.2 4.7zM235.1 648.6c-13.5 8.5-24.9 15.8-25.4 16.3s-.2 2.1.7 3.9c1.3 2.5 3.3 3.7 11.8 7 5.7 2.2 15.3 5.6 21.3 7.6 17.4 5.6 52 13.4 51.3 11.6-1.9-5-33.4-62-34.2-61.9-.6 0-12.1 7-25.5 15.5z"/></svg>