<svg width="1000" height="1000" viewBox="0 0 1000 1000" fill="none" xmlns="http://www.w3.org/2000/svg">
<g clip-path="url(#clip0)">
<rect x="-0.816162" width="1000.72" height="1000.72" fill="#212529"/>
<mask id="path-3-outside-1" maskUnits="userSpaceOnUse" x="-136" y="150" width="1069" height="1130" fill="black">
<rect fill="white" x="-136" y="150" width="1069" height="1130"/>
<path d="M-128.523 901.985L21.5649 644.492L117.586 428.972L259.401 292.337L343.899 206.605L414.806 190.531L451.147 176.242L555.144 169.991L658.847 156L685.733 196.782L661.21 286.086L683.96 411.707L680.119 433.14L685.733 466.777L660.324 488.508L633.734 487.913L627.529 505.476L658.551 625.44L722.368 877.575L758.708 991.586L798.298 1014.51L875.41 981.763L922.386 974.916L928 979.381V1114.53L883.387 1137.45L879.251 1134.77L886.933 1195.79L760.776 1220.8V1219.61L609.211 1174.06L623.393 1228.54L523.531 1272L523.236 1270.51L306.082 1248.48L303.718 1248.19L301.65 1216.04L222.47 1221.99L-60.5696 1199.37L-130 1145.78L-128.523 901.985ZM301.354 1149.36L390.875 1155.91L285.991 950.804L162.198 999.028L301.354 1149.36ZM398.852 1159.18L494.577 1119.29L375.216 896.329L291.309 948.72L398.852 1159.18ZM508.168 1199.96L596.803 1169.6L498.714 1124.05L411.557 1160.37L508.168 1199.96ZM759.299 1154.71L868.024 1135.07L784.117 1085.95L689.869 1110.96L759.299 1154.71ZM787.958 1081.19L874.228 1131.79L846.752 1114.53L850.593 1013.61L800.366 1020.76L787.958 1081.19ZM639.643 469.456L665.051 444.749L614.234 383.725L568.44 434.628L639.643 469.456ZM451.737 182.196L422.193 193.805L478.328 220.596L566.076 236.076L528.849 204.819L451.737 182.196ZM341.831 214.643L265.31 294.719L299.582 336.394L359.853 244.708L341.831 214.643ZM158.357 477.196L112.858 559.653L367.535 542.983L298.991 346.812L158.357 477.196ZM106.063 573.644L23.6331 759.694L81.2455 857.928L129.404 757.015L106.063 573.644ZM135.017 752.847L262.355 687.953L111.381 569.477L135.017 752.847ZM373.148 890.375L374.035 839.77L371.671 679.32L270.923 691.227L289.832 942.171L373.148 890.375ZM408.307 945.446L493.987 831.434L379.944 842.449L379.353 891.268L408.307 945.446ZM514.668 905.259L619.257 888.887L504.032 832.923L514.668 905.259ZM585.576 649.255L536.827 684.083L442.579 757.312L499.305 822.206L527.372 740.642L530.031 741.535L527.668 740.047L585.576 649.255ZM510.827 611.449L512.304 553.104L491.032 504.285L374.625 547.448L377.58 672.474L500.191 655.804L510.827 611.449ZM478.032 227.145L381.421 338.775L482.169 369.436L574.644 287.872L478.032 227.145ZM305.491 338.18L372.853 337.584L360.739 254.532L305.491 338.18ZM365.467 548.639L115.517 565.011L267.082 684.083L365.467 548.639ZM274.173 684.976L371.671 673.367L368.717 554.295L274.173 684.976ZM379.944 836.495L494.282 825.481L437.851 760.587L377.875 684.381L379.944 836.495ZM374.33 343.538L304.013 344.133L372.262 539.411L432.829 465.884L374.33 343.538ZM574.644 295.909L487.782 372.711L561.053 429.27L560.462 355.445V355.147L574.644 295.909ZM580.257 297.1L566.076 355.743L566.667 427.781L611.575 377.771L580.257 297.1ZM481.578 375.687L381.716 345.324L438.147 462.61H438.442L556.917 433.735L481.578 375.687ZM438.442 468.861L380.83 538.816L482.464 501.01L440.215 468.563L438.442 468.861ZM498.714 662.055L380.239 678.13L438.738 752.549L533.281 679.023L582.621 643.896L498.714 662.353V662.055ZM284.218 945.446L265.014 693.311L135.608 759.098L159.244 993.67L284.218 945.446ZM365.762 246.792L365.171 247.685H365.762L378.171 333.715L472.714 224.466L421.306 200.057L365.762 246.792ZM577.598 243.815L491.918 228.634L577.598 282.514L577.894 280.728L578.189 281.323L600.939 215.238L577.598 243.815ZM616.893 374.794L669.483 401.585L589.121 303.649L616.893 374.794ZM677.46 412.302L623.097 384.618L668.006 438.795L677.46 412.302ZM563.712 438.498L454.397 464.991L556.031 479.875L627.529 470.052L563.712 438.498ZM452.919 470.945L494.577 502.796L544.213 484.34L452.919 470.945ZM516.145 546.853L548.94 507.262L499.305 508.452L516.145 546.853ZM518.213 553.7L517.032 602.519L568.44 527.206L555.44 509.048L518.213 553.7ZM572.871 523.634L622.211 502.796L626.938 488.806L560.167 506.071L572.871 523.634ZM573.758 529.588L516.145 613.831L506.395 654.613L594.439 635.264L620.143 509.941L573.758 529.588ZM594.144 646.576L532.69 743.024L503.736 826.374L625.461 885.314L594.144 646.576ZM516.736 910.915L596.803 1060.05L678.051 1103.81L626.938 893.649L516.736 910.915ZM591.78 1063.03L509.645 910.022L509.35 909.427L498.418 835.304L411.261 951.102L500.486 1117.5L597.098 1119.59L591.78 1063.03ZM597.689 1125.84L512.895 1124.05L601.234 1164.84L597.689 1125.84ZM154.221 999.326L130.881 768.327L84.2 865.965L-43.7291 998.73L213.606 1063.33L154.221 999.326ZM-49.3426 996.051L77.9955 863.882L19.7923 764.754L-124.091 907.343L-49.3426 996.051ZM27.1785 647.171L-114.046 889.184L18.0196 758.205L103.109 566.202H102.518L105.177 561.439L109.313 551.914L109.609 553.402L152.744 475.112L121.131 436.116L27.1785 647.171ZM156.585 470.647L296.036 340.859L261.469 298.886L124.381 430.758L156.585 470.647ZM347.149 211.964L364.58 240.541L417.17 196.187L416.579 196.484L347.149 211.964ZM468.874 181.005L531.509 199.461L576.121 236.373L616.007 191.424L648.211 163.442L555.735 175.647L468.874 181.005ZM679.233 197.675L656.779 163.74L613.348 201.843L657.074 278.049L679.233 197.675ZM655.301 286.979L610.098 208.392L583.803 288.17L675.983 400.097L655.301 286.979ZM672.437 444.451L677.164 451.893L674.801 437.605L672.437 444.451ZM678.642 464.991L668.597 449.512L647.62 470.052L660.028 480.471L678.642 464.991ZM652.938 481.959L643.483 473.922L556.917 485.531L512.6 502.201L555.144 501.01L629.597 481.661L652.938 481.959ZM624.87 517.978L601.234 633.478L651.461 620.678L624.87 517.978ZM599.757 640.027L599.462 641.217L631.665 887.101L715.868 876.086L652.938 626.631L599.757 640.027ZM717.345 881.742L632.847 892.756L684.846 1105.89L781.162 1080.59L717.345 881.742ZM784.117 1071.07L794.753 1019.27L761.367 999.921L784.117 1071.07ZM877.478 987.418L820.161 1011.53L852.956 1006.77L904.955 983.251L877.478 987.418ZM883.683 1130.6L922.091 1110.96V982.06L856.502 1011.83L852.661 1111.25L883.683 1130.6ZM880.433 1191.03L874.228 1139.83L762.254 1160.07L766.39 1213.36L880.433 1191.03ZM760.185 1213.06L756.049 1159.48L681.301 1112.15L598.28 1067.2L607.734 1167.22L760.185 1213.06ZM616.302 1224.97L602.712 1173.47L511.714 1204.72L527.372 1263.66L616.302 1224.97ZM309.036 1243.13L521.463 1264.56L505.805 1205.32L400.625 1162.45L400.92 1163.05L303.127 1155.91L309.036 1243.13ZM297.218 1153.52L223.947 1074.64L227.788 1216.33L300.763 1210.08L297.218 1153.52ZM218.038 1070.77L-46.6835 1004.39L-56.4334 1194.01L222.174 1216.33L218.038 1070.77ZM-124.386 1143.1L-62.3423 1191.03L-52.5925 1001.71L-123.5 916.869L-124.386 1143.1Z"/>
</mask>
<path d="M-128.523 901.985L21.5649 644.492L117.586 428.972L259.401 292.337L343.899 206.605L414.806 190.531L451.147 176.242L555.144 169.991L658.847 156L685.733 196.782L661.21 286.086L683.96 411.707L680.119 433.14L685.733 466.777L660.324 488.508L633.734 487.913L627.529 505.476L658.551 625.44L722.368 877.575L758.708 991.586L798.298 1014.51L875.41 981.763L922.386 974.916L928 979.381V1114.53L883.387 1137.45L879.251 1134.77L886.933 1195.79L760.776 1220.8V1219.61L609.211 1174.06L623.393 1228.54L523.531 1272L523.236 1270.51L306.082 1248.48L303.718 1248.19L301.65 1216.04L222.47 1221.99L-60.5696 1199.37L-130 1145.78L-128.523 901.985ZM301.354 1149.36L390.875 1155.91L285.991 950.804L162.198 999.028L301.354 1149.36ZM398.852 1159.18L494.577 1119.29L375.216 896.329L291.309 948.72L398.852 1159.18ZM508.168 1199.96L596.803 1169.6L498.714 1124.05L411.557 1160.37L508.168 1199.96ZM759.299 1154.71L868.024 1135.07L784.117 1085.95L689.869 1110.96L759.299 1154.71ZM787.958 1081.19L874.228 1131.79L846.752 1114.53L850.593 1013.61L800.366 1020.76L787.958 1081.19ZM639.643 469.456L665.051 444.749L614.234 383.725L568.44 434.628L639.643 469.456ZM451.737 182.196L422.193 193.805L478.328 220.596L566.076 236.076L528.849 204.819L451.737 182.196ZM341.831 214.643L265.31 294.719L299.582 336.394L359.853 244.708L341.831 214.643ZM158.357 477.196L112.858 559.653L367.535 542.983L298.991 346.812L158.357 477.196ZM106.063 573.644L23.6331 759.694L81.2455 857.928L129.404 757.015L106.063 573.644ZM135.017 752.847L262.355 687.953L111.381 569.477L135.017 752.847ZM373.148 890.375L374.035 839.77L371.671 679.32L270.923 691.227L289.832 942.171L373.148 890.375ZM408.307 945.446L493.987 831.434L379.944 842.449L379.353 891.268L408.307 945.446ZM514.668 905.259L619.257 888.887L504.032 832.923L514.668 905.259ZM585.576 649.255L536.827 684.083L442.579 757.312L499.305 822.206L527.372 740.642L530.031 741.535L527.668 740.047L585.576 649.255ZM510.827 611.449L512.304 553.104L491.032 504.285L374.625 547.448L377.58 672.474L500.191 655.804L510.827 611.449ZM478.032 227.145L381.421 338.775L482.169 369.436L574.644 287.872L478.032 227.145ZM305.491 338.18L372.853 337.584L360.739 254.532L305.491 338.18ZM365.467 548.639L115.517 565.011L267.082 684.083L365.467 548.639ZM274.173 684.976L371.671 673.367L368.717 554.295L274.173 684.976ZM379.944 836.495L494.282 825.481L437.851 760.587L377.875 684.381L379.944 836.495ZM374.33 343.538L304.013 344.133L372.262 539.411L432.829 465.884L374.33 343.538ZM574.644 295.909L487.782 372.711L561.053 429.27L560.462 355.445V355.147L574.644 295.909ZM580.257 297.1L566.076 355.743L566.667 427.781L611.575 377.771L580.257 297.1ZM481.578 375.687L381.716 345.324L438.147 462.61H438.442L556.917 433.735L481.578 375.687ZM438.442 468.861L380.83 538.816L482.464 501.01L440.215 468.563L438.442 468.861ZM498.714 662.055L380.239 678.13L438.738 752.549L533.281 679.023L582.621 643.896L498.714 662.353V662.055ZM284.218 945.446L265.014 693.311L135.608 759.098L159.244 993.67L284.218 945.446ZM365.762 246.792L365.171 247.685H365.762L378.171 333.715L472.714 224.466L421.306 200.057L365.762 246.792ZM577.598 243.815L491.918 228.634L577.598 282.514L577.894 280.728L578.189 281.323L600.939 215.238L577.598 243.815ZM616.893 374.794L669.483 401.585L589.121 303.649L616.893 374.794ZM677.46 412.302L623.097 384.618L668.006 438.795L677.46 412.302ZM563.712 438.498L454.397 464.991L556.031 479.875L627.529 470.052L563.712 438.498ZM452.919 470.945L494.577 502.796L544.213 484.34L452.919 470.945ZM516.145 546.853L548.94 507.262L499.305 508.452L516.145 546.853ZM518.213 553.7L517.032 602.519L568.44 527.206L555.44 509.048L518.213 553.7ZM572.871 523.634L622.211 502.796L626.938 488.806L560.167 506.071L572.871 523.634ZM573.758 529.588L516.145 613.831L506.395 654.613L594.439 635.264L620.143 509.941L573.758 529.588ZM594.144 646.576L532.69 743.024L503.736 826.374L625.461 885.314L594.144 646.576ZM516.736 910.915L596.803 1060.05L678.051 1103.81L626.938 893.649L516.736 910.915ZM591.78 1063.03L509.645 910.022L509.35 909.427L498.418 835.304L411.261 951.102L500.486 1117.5L597.098 1119.59L591.78 1063.03ZM597.689 1125.84L512.895 1124.05L601.234 1164.84L597.689 1125.84ZM154.221 999.326L130.881 768.327L84.2 865.965L-43.7291 998.73L213.606 1063.33L154.221 999.326ZM-49.3426 996.051L77.9955 863.882L19.7923 764.754L-124.091 907.343L-49.3426 996.051ZM27.1785 647.171L-114.046 889.184L18.0196 758.205L103.109 566.202H102.518L105.177 561.439L109.313 551.914L109.609 553.402L152.744 475.112L121.131 436.116L27.1785 647.171ZM156.585 470.647L296.036 340.859L261.469 298.886L124.381 430.758L156.585 470.647ZM347.149 211.964L364.58 240.541L417.17 196.187L416.579 196.484L347.149 211.964ZM468.874 181.005L531.509 199.461L576.121 236.373L616.007 191.424L648.211 163.442L555.735 175.647L468.874 181.005ZM679.233 197.675L656.779 163.74L613.348 201.843L657.074 278.049L679.233 197.675ZM655.301 286.979L610.098 208.392L583.803 288.17L675.983 400.097L655.301 286.979ZM672.437 444.451L677.164 451.893L674.801 437.605L672.437 444.451ZM678.642 464.991L668.597 449.512L647.62 470.052L660.028 480.471L678.642 464.991ZM652.938 481.959L643.483 473.922L556.917 485.531L512.6 502.201L555.144 501.01L629.597 481.661L652.938 481.959ZM624.87 517.978L601.234 633.478L651.461 620.678L624.87 517.978ZM599.757 640.027L599.462 641.217L631.665 887.101L715.868 876.086L652.938 626.631L599.757 640.027ZM717.345 881.742L632.847 892.756L684.846 1105.89L781.162 1080.59L717.345 881.742ZM784.117 1071.07L794.753 1019.27L761.367 999.921L784.117 1071.07ZM877.478 987.418L820.161 1011.53L852.956 1006.77L904.955 983.251L877.478 987.418ZM883.683 1130.6L922.091 1110.96V982.06L856.502 1011.83L852.661 1111.25L883.683 1130.6ZM880.433 1191.03L874.228 1139.83L762.254 1160.07L766.39 1213.36L880.433 1191.03ZM760.185 1213.06L756.049 1159.48L681.301 1112.15L598.28 1067.2L607.734 1167.22L760.185 1213.06ZM616.302 1224.97L602.712 1173.47L511.714 1204.72L527.372 1263.66L616.302 1224.97ZM309.036 1243.13L521.463 1264.56L505.805 1205.32L400.625 1162.45L400.92 1163.05L303.127 1155.91L309.036 1243.13ZM297.218 1153.52L223.947 1074.64L227.788 1216.33L300.763 1210.08L297.218 1153.52ZM218.038 1070.77L-46.6835 1004.39L-56.4334 1194.01L222.174 1216.33L218.038 1070.77ZM-124.386 1143.1L-62.3423 1191.03L-52.5925 1001.71L-123.5 916.869L-124.386 1143.1Z" fill="#1FF9A2"/>
<path d="M-128.523 901.985L21.5649 644.492L117.586 428.972L259.401 292.337L343.899 206.605L414.806 190.531L451.147 176.242L555.144 169.991L658.847 156L685.733 196.782L661.21 286.086L683.96 411.707L680.119 433.14L685.733 466.777L660.324 488.508L633.734 487.913L627.529 505.476L658.551 625.44L722.368 877.575L758.708 991.586L798.298 1014.51L875.41 981.763L922.386 974.916L928 979.381V1114.53L883.387 1137.45L879.251 1134.77L886.933 1195.79L760.776 1220.8V1219.61L609.211 1174.06L623.393 1228.54L523.531 1272L523.236 1270.51L306.082 1248.48L303.718 1248.19L301.65 1216.04L222.47 1221.99L-60.5696 1199.37L-130 1145.78L-128.523 901.985ZM301.354 1149.36L390.875 1155.91L285.991 950.804L162.198 999.028L301.354 1149.36ZM398.852 1159.18L494.577 1119.29L375.216 896.329L291.309 948.72L398.852 1159.18ZM508.168 1199.96L596.803 1169.6L498.714 1124.05L411.557 1160.37L508.168 1199.96ZM759.299 1154.71L868.024 1135.07L784.117 1085.95L689.869 1110.96L759.299 1154.71ZM787.958 1081.19L874.228 1131.79L846.752 1114.53L850.593 1013.61L800.366 1020.76L787.958 1081.19ZM639.643 469.456L665.051 444.749L614.234 383.725L568.44 434.628L639.643 469.456ZM451.737 182.196L422.193 193.805L478.328 220.596L566.076 236.076L528.849 204.819L451.737 182.196ZM341.831 214.643L265.31 294.719L299.582 336.394L359.853 244.708L341.831 214.643ZM158.357 477.196L112.858 559.653L367.535 542.983L298.991 346.812L158.357 477.196ZM106.063 573.644L23.6331 759.694L81.2455 857.928L129.404 757.015L106.063 573.644ZM135.017 752.847L262.355 687.953L111.381 569.477L135.017 752.847ZM373.148 890.375L374.035 839.77L371.671 679.32L270.923 691.227L289.832 942.171L373.148 890.375ZM408.307 945.446L493.987 831.434L379.944 842.449L379.353 891.268L408.307 945.446ZM514.668 905.259L619.257 888.887L504.032 832.923L514.668 905.259ZM585.576 649.255L536.827 684.083L442.579 757.312L499.305 822.206L527.372 740.642L530.031 741.535L527.668 740.047L585.576 649.255ZM510.827 611.449L512.304 553.104L491.032 504.285L374.625 547.448L377.58 672.474L500.191 655.804L510.827 611.449ZM478.032 227.145L381.421 338.775L482.169 369.436L574.644 287.872L478.032 227.145ZM305.491 338.18L372.853 337.584L360.739 254.532L305.491 338.18ZM365.467 548.639L115.517 565.011L267.082 684.083L365.467 548.639ZM274.173 684.976L371.671 673.367L368.717 554.295L274.173 684.976ZM379.944 836.495L494.282 825.481L437.851 760.587L377.875 684.381L379.944 836.495ZM374.33 343.538L304.013 344.133L372.262 539.411L432.829 465.884L374.33 343.538ZM574.644 295.909L487.782 372.711L561.053 429.27L560.462 355.445V355.147L574.644 295.909ZM580.257 297.1L566.076 355.743L566.667 427.781L611.575 377.771L580.257 297.1ZM481.578 375.687L381.716 345.324L438.147 462.61H438.442L556.917 433.735L481.578 375.687ZM438.442 468.861L380.83 538.816L482.464 501.01L440.215 468.563L438.442 468.861ZM498.714 662.055L380.239 678.13L438.738 752.549L533.281 679.023L582.621 643.896L498.714 662.353V662.055ZM284.218 945.446L265.014 693.311L135.608 759.098L159.244 993.67L284.218 945.446ZM365.762 246.792L365.171 247.685H365.762L378.171 333.715L472.714 224.466L421.306 200.057L365.762 246.792ZM577.598 243.815L491.918 228.634L577.598 282.514L577.894 280.728L578.189 281.323L600.939 215.238L577.598 243.815ZM616.893 374.794L669.483 401.585L589.121 303.649L616.893 374.794ZM677.46 412.302L623.097 384.618L668.006 438.795L677.46 412.302ZM563.712 438.498L454.397 464.991L556.031 479.875L627.529 470.052L563.712 438.498ZM452.919 470.945L494.577 502.796L544.213 484.34L452.919 470.945ZM516.145 546.853L548.94 507.262L499.305 508.452L516.145 546.853ZM518.213 553.7L517.032 602.519L568.44 527.206L555.44 509.048L518.213 553.7ZM572.871 523.634L622.211 502.796L626.938 488.806L560.167 506.071L572.871 523.634ZM573.758 529.588L516.145 613.831L506.395 654.613L594.439 635.264L620.143 509.941L573.758 529.588ZM594.144 646.576L532.69 743.024L503.736 826.374L625.461 885.314L594.144 646.576ZM516.736 910.915L596.803 1060.05L678.051 1103.81L626.938 893.649L516.736 910.915ZM591.78 1063.03L509.645 910.022L509.35 909.427L498.418 835.304L411.261 951.102L500.486 1117.5L597.098 1119.59L591.78 1063.03ZM597.689 1125.84L512.895 1124.05L601.234 1164.84L597.689 1125.84ZM154.221 999.326L130.881 768.327L84.2 865.965L-43.7291 998.73L213.606 1063.33L154.221 999.326ZM-49.3426 996.051L77.9955 863.882L19.7923 764.754L-124.091 907.343L-49.3426 996.051ZM27.1785 647.171L-114.046 889.184L18.0196 758.205L103.109 566.202H102.518L105.177 561.439L109.313 551.914L109.609 553.402L152.744 475.112L121.131 436.116L27.1785 647.171ZM156.585 470.647L296.036 340.859L261.469 298.886L124.381 430.758L156.585 470.647ZM347.149 211.964L364.58 240.541L417.17 196.187L416.579 196.484L347.149 211.964ZM468.874 181.005L531.509 199.461L576.121 236.373L616.007 191.424L648.211 163.442L555.735 175.647L468.874 181.005ZM679.233 197.675L656.779 163.74L613.348 201.843L657.074 278.049L679.233 197.675ZM655.301 286.979L610.098 208.392L583.803 288.17L675.983 400.097L655.301 286.979ZM672.437 444.451L677.164 451.893L674.801 437.605L672.437 444.451ZM678.642 464.991L668.597 449.512L647.62 470.052L660.028 480.471L678.642 464.991ZM652.938 481.959L643.483 473.922L556.917 485.531L512.6 502.201L555.144 501.01L629.597 481.661L652.938 481.959ZM624.87 517.978L601.234 633.478L651.461 620.678L624.87 517.978ZM599.757 640.027L599.462 641.217L631.665 887.101L715.868 876.086L652.938 626.631L599.757 640.027ZM717.345 881.742L632.847 892.756L684.846 1105.89L781.162 1080.59L717.345 881.742ZM784.117 1071.07L794.753 1019.27L761.367 999.921L784.117 1071.07ZM877.478 987.418L820.161 1011.53L852.956 1006.77L904.955 983.251L877.478 987.418ZM883.683 1130.6L922.091 1110.96V982.06L856.502 1011.83L852.661 1111.25L883.683 1130.6ZM880.433 1191.03L874.228 1139.83L762.254 1160.07L766.39 1213.36L880.433 1191.03ZM760.185 1213.06L756.049 1159.48L681.301 1112.15L598.28 1067.2L607.734 1167.22L760.185 1213.06ZM616.302 1224.97L602.712 1173.47L511.714 1204.72L527.372 1263.66L616.302 1224.97ZM309.036 1243.13L521.463 1264.56L505.805 1205.32L400.625 1162.45L400.92 1163.05L303.127 1155.91L309.036 1243.13ZM297.218 1153.52L223.947 1074.64L227.788 1216.33L300.763 1210.08L297.218 1153.52ZM218.038 1070.77L-46.6835 1004.39L-56.4334 1194.01L222.174 1216.33L218.038 1070.77ZM-124.386 1143.1L-62.3423 1191.03L-52.5925 1001.71L-123.5 916.869L-124.386 1143.1Z" stroke="#1FF9A2" stroke-width="10" mask="url(#path-3-outside-1)"/>
</g>
<defs>
<clipPath id="clip0">
<rect width="1000" height="1000" rx="500" fill="white"/>
</clipPath>
</defs>
</svg>
